<svg width="128px" height="128px" viewBox="0 0 128 128" fill="none" xmlns="http://www.w3.org/2000/svg">
<path fill-rule="evenodd" clip-rule="evenodd" d="M24.5 43C24.5 41.6193 23.3807 40.5 22 40.5H16C11.3056 40.5 7.5 44.3056 7.5 49V79C7.5 83.6944 11.3056 87.5 16 87.5H22C23.3807 87.5 24.5 86.3807 24.5 85V43ZM22 41.5C22.8284 41.5 23.5 42.1716 23.5 43V85C23.5 85.8284 22.8284 86.5 22 86.5H16C11.8579 86.5 8.5 83.1421 8.5 79V49C8.5 44.8579 11.8579 41.5 16 41.5H22Z" fill="black"/>
<path fill-rule="evenodd" clip-rule="evenodd" d="M103.5 43C103.5 41.6193 104.619 40.5 106 40.5H112C116.694 40.5 120.5 44.3056 120.5 49V79C120.5 83.6944 116.694 87.5 112 87.5H106C104.619 87.5 103.5 86.3807 103.5 85V43ZM106 41.5C105.172 41.5 104.5 42.1716 104.5 43V85C104.5 85.8284 105.172 86.5 106 86.5H112C116.142 86.5 119.5 83.1421 119.5 79V49C119.5 44.8579 116.142 41.5 112 41.5H106Z" fill="black"/>
<path fill-rule="evenodd" clip-rule="evenodd" d="M23.5 43C23.5 41.6193 24.6193 40.5 26 40.5H102C103.381 40.5 104.5 41.6193 104.5 43V85C104.5 86.3807 103.381 87.5 102 87.5H26C24.6193 87.5 23.5 86.3807 23.5 85V43ZM26 41.5C25.1716 41.5 24.5 42.1716 24.5 43V85C24.5 85.8284 25.1716 86.5 26 86.5H102C102.828 86.5 103.5 85.8284 103.5 85V43C103.5 42.1716 102.828 41.5 102 41.5H26Z" fill="black"/>
<path fill-rule="evenodd" clip-rule="evenodd" d="M25.5 45C25.5 43.6193 26.6193 42.5 28 42.5H100C101.381 42.5 102.5 43.6193 102.5 45V83C102.5 84.3807 101.381 85.5 100 85.5H28C26.6193 85.5 25.5 84.3807 25.5 83V45ZM28 43.5C27.1716 43.5 26.5 44.1716 26.5 45V83C26.5 83.8284 27.1716 84.5 28 84.5H100C100.828 84.5 101.5 83.8284 101.5 83V45C101.5 44.1716 100.828 43.5 100 43.5H28Z" fill="black"/>
<path fill-rule="evenodd" clip-rule="evenodd" d="M16.5 49.5C14.8431 49.5 13.5 50.8431 13.5 52.5C13.5 54.1569 14.8431 55.5 16.5 55.5C18.1569 55.5 19.5 54.1569 19.5 52.5C19.5 50.8431 18.1569 49.5 16.5 49.5ZM12.5 52.5C12.5 50.2909 14.2909 48.5 16.5 48.5C18.7091 48.5 20.5 50.2909 20.5 52.5C20.5 54.7091 18.7091 56.5 16.5 56.5C14.2909 56.5 12.5 54.7091 12.5 52.5Z" fill="black"/>
<path fill-rule="evenodd" clip-rule="evenodd" d="M111.5 62.5C109.843 62.5 108.5 63.8431 108.5 65.5C108.5 67.1569 109.843 68.5 111.5 68.5C113.157 68.5 114.5 67.1569 114.5 65.5C114.5 63.8431 113.157 62.5 111.5 62.5ZM107.5 65.5C107.5 63.2909 109.291 61.5 111.5 61.5C113.709 61.5 115.5 63.2909 115.5 65.5C115.5 67.7091 113.709 69.5 111.5 69.5C109.291 69.5 107.5 67.7091 107.5 65.5Z" fill="black"/>
<path fill-rule="evenodd" clip-rule="evenodd" d="M109.5 73.5C108.948 73.5 108.5 73.9477 108.5 74.5C108.5 75.0523 108.948 75.5 109.5 75.5C110.052 75.5 110.5 75.0523 110.5 74.5C110.5 73.9477 110.052 73.5 109.5 73.5ZM107.5 74.5C107.5 73.3954 108.395 72.5 109.5 72.5C110.605 72.5 111.5 73.3954 111.5 74.5C111.5 75.6046 110.605 76.5 109.5 76.5C108.395 76.5 107.5 75.6046 107.5 74.5Z" fill="black"/>
<path fill-rule="evenodd" clip-rule="evenodd" d="M108 43.5L108 46.5L107 46.5L107 43.5L108 43.5Z" fill="black"/>
<path fill-rule="evenodd" clip-rule="evenodd" d="M22 45.5H19V44.5H22V45.5Z" fill="black"/>
<path fill-rule="evenodd" clip-rule="evenodd" d="M109 45.5H106V44.5H109V45.5Z" fill="black"/>
<path fill-rule="evenodd" clip-rule="evenodd" d="M16.5 60.5C15.9477 60.5 15.5 60.9477 15.5 61.5C15.5 62.0523 15.9477 62.5 16.5 62.5C17.0523 62.5 17.5 62.0523 17.5 61.5C17.5 60.9477 17.0523 60.5 16.5 60.5ZM14.5 61.5C14.5 60.3954 15.3954 59.5 16.5 59.5C17.6046 59.5 18.5 60.3954 18.5 61.5C18.5 62.6046 17.6046 63.5 16.5 63.5C15.3954 63.5 14.5 62.6046 14.5 61.5Z" fill="black"/>
<path fill-rule="evenodd" clip-rule="evenodd" d="M12.5 64.5C11.9477 64.5 11.5 64.9477 11.5 65.5C11.5 66.0523 11.9477 66.5 12.5 66.5C13.0523 66.5 13.5 66.0523 13.5 65.5C13.5 64.9477 13.0523 64.5 12.5 64.5ZM10.5 65.5C10.5 64.3954 11.3954 63.5 12.5 63.5C13.6046 63.5 14.5 64.3954 14.5 65.5C14.5 66.6046 13.6046 67.5 12.5 67.5C11.3954 67.5 10.5 66.6046 10.5 65.5Z" fill="black"/>
<path fill-rule="evenodd" clip-rule="evenodd" d="M16.5 68.5C15.9477 68.5 15.5 68.9477 15.5 69.5C15.5 70.0523 15.9477 70.5 16.5 70.5C17.0523 70.5 17.5 70.0523 17.5 69.5C17.5 68.9477 17.0523 68.5 16.5 68.5ZM14.5 69.5C14.5 68.3954 15.3954 67.5 16.5 67.5C17.6046 67.5 18.5 68.3954 18.5 69.5C18.5 70.6046 17.6046 71.5 16.5 71.5C15.3954 71.5 14.5 70.6046 14.5 69.5Z" fill="black"/>
<path fill-rule="evenodd" clip-rule="evenodd" d="M20.5 64.5C19.9477 64.5 19.5 64.9477 19.5 65.5C19.5 66.0523 19.9477 66.5 20.5 66.5C21.0523 66.5 21.5 66.0523 21.5 65.5C21.5 64.9477 21.0523 64.5 20.5 64.5ZM18.5 65.5C18.5 64.3954 19.3954 63.5 20.5 63.5C21.6046 63.5 22.5 64.3954 22.5 65.5C22.5 66.6046 21.6046 67.5 20.5 67.5C19.3954 67.5 18.5 66.6046 18.5 65.5Z" fill="black"/>
<path fill-rule="evenodd" clip-rule="evenodd" d="M111.5 47.5C110.948 47.5 110.5 47.9477 110.5 48.5C110.5 49.0523 110.948 49.5 111.5 49.5C112.052 49.5 112.5 49.0523 112.5 48.5C112.5 47.9477 112.052 47.5 111.5 47.5ZM109.5 48.5C109.5 47.3954 110.395 46.5 111.5 46.5C112.605 46.5 113.5 47.3954 113.5 48.5C113.5 49.6046 112.605 50.5 111.5 50.5C110.395 50.5 109.5 49.6046 109.5 48.5Z" fill="black"/>
<path fill-rule="evenodd" clip-rule="evenodd" d="M107.5 51.5C106.948 51.5 106.5 51.9477 106.5 52.5C106.5 53.0523 106.948 53.5 107.5 53.5C108.052 53.5 108.5 53.0523 108.5 52.5C108.5 51.9477 108.052 51.5 107.5 51.5ZM105.5 52.5C105.5 51.3954 106.395 50.5 107.5 50.5C108.605 50.5 109.5 51.3954 109.5 52.5C109.5 53.6046 108.605 54.5 107.5 54.5C106.395 54.5 105.5 53.6046 105.5 52.5Z" fill="black"/>
<path fill-rule="evenodd" clip-rule="evenodd" d="M111.5 55.5C110.948 55.5 110.5 55.9477 110.5 56.5C110.5 57.0523 110.948 57.5 111.5 57.5C112.052 57.5 112.5 57.0523 112.5 56.5C112.5 55.9477 112.052 55.5 111.5 55.5ZM109.5 56.5C109.5 55.3954 110.395 54.5 111.5 54.5C112.605 54.5 113.5 55.3954 113.5 56.5C113.5 57.6046 112.605 58.5 111.5 58.5C110.395 58.5 109.5 57.6046 109.5 56.5Z" fill="black"/>
<path fill-rule="evenodd" clip-rule="evenodd" d="M115.5 51.5C114.948 51.5 114.5 51.9477 114.5 52.5C114.5 53.0523 114.948 53.5 115.5 53.5C116.052 53.5 116.5 53.0523 116.5 52.5C116.5 51.9477 116.052 51.5 115.5 51.5ZM113.5 52.5C113.5 51.3954 114.395 50.5 115.5 50.5C116.605 50.5 117.5 51.3954 117.5 52.5C117.5 53.6046 116.605 54.5 115.5 54.5C114.395 54.5 113.5 53.6046 113.5 52.5Z" fill="black"/>
<path fill-rule="evenodd" clip-rule="evenodd" d="M17.5 74C17.5 73.7239 17.7239 73.5 18 73.5H20C20.2761 73.5 20.5 73.7239 20.5 74V76C20.5 76.2761 20.2761 76.5 20 76.5H18C17.7239 76.5 17.5 76.2761 17.5 76V74ZM18.5 74.5V75.5H19.5V74.5H18.5Z" fill="black"/>
</svg>
